<svg width="1234" height="896" viewBox="0 0 1234 896" fill="none" xmlns="http://www.w3.org/2000/svg">
<path d="M18.3539 84.4625C19.1895 47.5157 49.3802 18 86.3365 18H1043C1080.56 18 1111 48.4446 1111 86V492.349C1111 521.952 1091.85 548.154 1063.64 557.141L90.7783 867.079C46.3011 881.249 1.09873 847.418 2.15418 800.751L18.3539 84.4625Z" fill="#FFBE17"/>
<path d="M79.7841 65.3896C82.0926 29.1404 112.482 1.10529 148.799 1.72111L1165.46 18.9603C1203.01 19.597 1232.93 50.5535 1232.3 88.1034L1225.89 465.912C1225.36 497.345 1203.35 524.315 1172.66 531.138L122.375 764.658C78.1614 774.489 36.8753 739.159 39.7539 693.957L79.7841 65.3896Z" fill="#4C4747"/>
</svg>
