<svg width="562" height="38" viewBox="0 0 562 38" fill="none" xmlns="http://www.w3.org/2000/svg">
<path d="M524.334 19.1033C524.391 29.4125 532.794 37.7234 543.103 37.6664C553.412 37.6093 561.723 29.2058 561.666 18.8967C561.609 8.58752 553.206 0.276558 542.897 0.33362C532.588 0.390682 524.277 8.79416 524.334 19.1033ZM1.01937 25.4999L543.019 22.4999L542.981 15.5001L0.980628 18.5001L1.01937 25.4999Z" fill="#FFBE17"/>
<line x1="9.98547" y1="36.0001" x2="422.985" y2="33.0001" stroke="#4C4747" stroke-width="4"/>
<path d="M524.334 19.1051C524.392 29.4142 532.796 37.7244 543.105 37.6664C553.414 37.6083 561.724 29.2041 561.666 18.8949C561.608 8.58578 553.204 0.275605 542.895 0.33363C532.586 0.391655 524.276 8.79591 524.334 19.1051ZM10.0197 25.4999L543.02 22.4999L542.98 15.5001L9.9803 18.5001L10.0197 25.4999Z" fill="#FFBE17"/>
<line x1="9.98547" y1="36.0001" x2="422.985" y2="33.0001" stroke="#4C4747" stroke-width="4"/>
</svg>
